<svg width="147" height="38" viewBox="0 0 147 38" fill="none" xmlns="http://www.w3.org/2000/svg">
<path d="M0.168 29V3.8H11.508C13.116 3.8 14.568 4.148 15.864 4.844C17.184 5.54 18.216 6.5 18.96 7.724C19.704 8.924 20.076 10.292 20.076 11.828C20.076 13.412 19.704 14.84 18.96 16.112C18.216 17.36 17.196 18.344 15.9 19.064C14.604 19.784 13.14 20.144 11.508 20.144H6V29H0.168ZM14.136 29L7.728 17.624L13.992 16.724L21.12 29H14.136ZM6 15.464H10.968C11.592 15.464 12.132 15.332 12.588 15.068C13.068 14.78 13.428 14.384 13.668 13.88C13.932 13.376 14.064 12.8 14.064 12.152C14.064 11.504 13.92 10.94 13.632 10.46C13.344 9.956 12.924 9.572 12.372 9.308C11.844 9.044 11.196 8.912 10.428 8.912H6V15.464ZM31.1862 29.324C29.5782 29.324 28.1382 28.904 26.8662 28.064C25.6182 27.2 24.6222 26.024 23.8782 24.536C23.1342 23.024 22.7622 21.32 22.7622 19.424C22.7622 17.48 23.1342 15.764 23.8782 14.276C24.6222 12.788 25.6422 11.624 26.9382 10.784C28.2342 9.92 29.7102 9.488 31.3662 9.488C32.2782 9.488 33.1062 9.62 33.8502 9.884C34.6182 10.148 35.2902 10.52 35.8662 11C36.4422 11.456 36.9342 11.996 37.3422 12.62C37.7502 13.22 38.0502 13.868 38.2422 14.564L37.0542 14.42V9.884H42.7782V29H36.9462V24.392L38.2422 24.356C38.0502 25.028 37.7382 25.664 37.3062 26.264C36.8742 26.864 36.3462 27.392 35.7222 27.848C35.0982 28.304 34.4022 28.664 33.6342 28.928C32.8662 29.192 32.0502 29.324 31.1862 29.324ZM32.7702 24.464C33.6582 24.464 34.4262 24.26 35.0742 23.852C35.7222 23.444 36.2262 22.868 36.5862 22.124C36.9462 21.356 37.1262 20.456 37.1262 19.424C37.1262 18.392 36.9462 17.504 36.5862 16.76C36.2262 15.992 35.7222 15.404 35.0742 14.996C34.4262 14.564 33.6582 14.348 32.7702 14.348C31.9062 14.348 31.1502 14.564 30.5022 14.996C29.8782 15.404 29.3862 15.992 29.0262 16.76C28.6662 17.504 28.4862 18.392 28.4862 19.424C28.4862 20.456 28.6662 21.356 29.0262 22.124C29.3862 22.868 29.8782 23.444 30.5022 23.852C31.1502 24.26 31.9062 24.464 32.7702 24.464ZM47.8607 29V9.884H53.3327L53.5127 13.772L52.3607 14.204C52.6247 13.34 53.0927 12.56 53.7647 11.864C54.4607 11.144 55.2887 10.568 56.2487 10.136C57.2087 9.704 58.2167 9.488 59.2727 9.488C60.7127 9.488 61.9247 9.788 62.9087 10.388C63.8927 10.964 64.6367 11.84 65.1407 13.016C65.6447 14.168 65.8967 15.584 65.8967 17.264V29H60.1007V17.732C60.1007 16.964 59.9927 16.328 59.7767 15.824C59.5607 15.32 59.2247 14.948 58.7687 14.708C58.3367 14.444 57.7967 14.324 57.1487 14.348C56.6447 14.348 56.1767 14.432 55.7447 14.6C55.3127 14.744 54.9407 14.972 54.6287 15.284C54.3167 15.572 54.0647 15.908 53.8727 16.292C53.7047 16.676 53.6207 17.096 53.6207 17.552V29H50.7767C50.1047 29 49.5287 29 49.0487 29C48.5687 29 48.1727 29 47.8607 29ZM76.2563 23.384L74.1323 19.064L83.0603 9.884H90.6562L76.2563 23.384ZM70.7123 29V2.36H76.4723V29H70.7123ZM83.6723 29L76.9403 20.288L81.0083 17.12L90.4763 29H83.6723ZM93.5714 29V9.884H99.3314V29H93.5714ZM96.4514 6.104C95.3714 6.104 94.5194 5.852 93.8954 5.348C93.2954 4.82 92.9954 4.076 92.9954 3.116C92.9954 2.252 93.3074 1.544 93.9314 0.991998C94.5554 0.439998 95.3954 0.163998 96.4514 0.163998C97.5314 0.163998 98.3714 0.427998 98.9714 0.955998C99.5714 1.46 99.8714 2.18 99.8714 3.116C99.8714 4.004 99.5594 4.724 98.9354 5.276C98.3354 5.828 97.5074 6.104 96.4514 6.104ZM104.744 29V9.884H110.216L110.396 13.772L109.244 14.204C109.508 13.34 109.976 12.56 110.648 11.864C111.344 11.144 112.172 10.568 113.132 10.136C114.092 9.704 115.1 9.488 116.156 9.488C117.596 9.488 118.808 9.788 119.792 10.388C120.776 10.964 121.52 11.84 122.023 13.016C122.528 14.168 122.78 15.584 122.78 17.264V29H116.984V17.732C116.984 16.964 116.876 16.328 116.66 15.824C116.444 15.32 116.108 14.948 115.652 14.708C115.22 14.444 114.68 14.324 114.032 14.348C113.528 14.348 113.06 14.432 112.628 14.6C112.196 14.744 111.824 14.972 111.512 15.284C111.2 15.572 110.948 15.908 110.756 16.292C110.588 16.676 110.504 17.096 110.504 17.552V29H107.66C106.988 29 106.412 29 105.932 29C105.452 29 105.056 29 104.744 29ZM136.343 37.28C134.783 37.28 133.223 37.052 131.663 36.596C130.127 36.14 128.879 35.552 127.919 34.832L129.935 30.8C130.439 31.136 130.991 31.424 131.591 31.664C132.215 31.928 132.863 32.132 133.535 32.276C134.207 32.42 134.891 32.492 135.587 32.492C136.811 32.492 137.807 32.312 138.575 31.952C139.343 31.592 139.919 31.04 140.303 30.296C140.687 29.576 140.879 28.664 140.879 27.56V24.356L141.995 24.536C141.827 25.328 141.407 26.048 140.735 26.696C140.087 27.344 139.283 27.872 138.323 28.28C137.363 28.664 136.343 28.856 135.263 28.856C133.535 28.856 131.987 28.46 130.619 27.668C129.275 26.852 128.207 25.736 127.415 24.32C126.647 22.88 126.263 21.224 126.263 19.352C126.263 17.432 126.647 15.74 127.415 14.276C128.183 12.788 129.239 11.624 130.583 10.784C131.927 9.92 133.439 9.488 135.119 9.488C135.839 9.488 136.523 9.572 137.171 9.74C137.843 9.908 138.455 10.136 139.007 10.424C139.583 10.688 140.087 11.012 140.519 11.396C140.975 11.756 141.335 12.152 141.599 12.584C141.887 13.016 142.079 13.46 142.175 13.916L140.987 14.204L141.203 9.884H146.675V27.452C146.675 29.012 146.435 30.392 145.955 31.592C145.499 32.816 144.815 33.848 143.903 34.688C143.015 35.552 141.935 36.2 140.663 36.632C139.391 37.064 137.951 37.28 136.343 37.28ZM136.487 24.392C137.423 24.392 138.227 24.188 138.899 23.78C139.595 23.348 140.123 22.76 140.483 22.016C140.867 21.272 141.059 20.396 141.059 19.388C141.059 18.38 140.867 17.504 140.483 16.76C140.123 15.992 139.595 15.404 138.899 14.996C138.227 14.564 137.423 14.348 136.487 14.348C135.575 14.348 134.783 14.564 134.111 14.996C133.439 15.404 132.911 15.992 132.527 16.76C132.167 17.504 131.987 18.38 131.987 19.388C131.987 20.396 132.167 21.272 132.527 22.016C132.911 22.76 133.439 23.348 134.111 23.78C134.783 24.188 135.575 24.392 136.487 24.392Z" fill="black"/>
</svg>
